<svg width="58" height="166" viewBox="0 0 58 166" fill="none" xmlns="http://www.w3.org/2000/svg">
<g clip-path="url(#clip0_1339_239)">
<path d="M28.3274 119.234C28.3366 119.306 28.3228 119.373 28.2882 119.435C27.6468 121.467 27.4161 123.555 27.4115 125.678L27.4323 125.65C26.9224 126.005 27.1324 126.587 27.0816 127.034C26.9086 128.561 26.5118 130.073 26.6641 131.628C26.8578 132.096 26.731 132.564 26.6641 133.035C26.4841 133.152 26.4703 133.332 26.4818 133.522C26.491 133.593 26.4772 133.66 26.4426 133.722C26.3803 133.817 26.2719 133.905 26.2649 134.004C25.9512 137.679 25.3929 141.338 25.5613 145.043C25.5475 145.188 25.5336 145.334 25.5221 145.479C25.1853 146.854 25.1829 148.229 25.5152 149.606C25.6397 150.254 24.8161 150.54 24.913 151.18C24.477 151.184 24.0963 151.362 23.7272 151.567C21.8793 152.589 19.9252 152.903 17.8766 152.356C16.9607 152.112 16.0748 151.749 15.1774 151.44C15.0251 151.364 14.8752 151.288 14.7229 151.21C14.7044 151.147 14.6975 151.085 14.7067 151.02C14.6883 150.714 14.5614 150.522 14.2177 150.557L14.2315 150.57C13.7862 148.388 13.9177 146.155 13.8693 143.965C13.7747 139.649 13.574 135.335 13.5648 131.016C13.5578 127.955 13.5325 124.893 13.514 121.832C13.4771 121.753 13.4425 121.675 13.4079 121.597C13.8601 121.384 13.7793 120.971 13.7839 120.598C13.7932 119.677 13.7839 118.757 13.7932 117.838C13.8278 114.106 13.6801 110.375 13.604 106.642C13.574 105.189 13.2049 103.773 13.3295 102.314C13.4979 100.377 13.0019 98.4571 13.1241 96.5215C13.2395 94.6851 12.9811 92.8672 12.8634 91.0447C12.8058 90.1726 13.0803 89.9627 13.8439 90.3733C13.9108 90.4495 13.9754 90.5233 14.0423 90.5994C14.0262 90.927 14.1807 91.0816 14.5083 91.0631C14.5337 91.1669 14.5614 91.2731 14.5868 91.3769C14.6422 91.3307 14.6975 91.2846 14.7529 91.2385C15.5926 91.603 16.4832 91.8267 17.3344 92.129C18.4003 92.505 19.54 92.2812 20.585 92.8234C21.351 93.2202 22.0177 92.5373 22.0362 91.5476C23.525 91.5507 24.3947 90.7847 24.6454 89.2498C24.6708 89.0998 24.71 88.9522 24.7515 88.8068C25.8635 85.0326 26.9778 81.2606 28.0921 77.4886C29.3171 77.484 30.5422 77.4771 31.7672 77.4724C33.4352 77.5117 35.1193 77.6432 36.582 76.5796C38.2176 76.5727 39.7126 75.8298 41.3206 75.6683C41.5121 78.7621 41.7243 81.8558 41.8904 84.9518C41.9919 86.8574 42.3334 87.1458 44.2436 86.7536C44.4351 86.9774 44.5666 86.9105 44.6588 86.6659L44.6519 86.689C44.8572 86.6982 45.0464 86.6752 45.1295 86.4468L45.1133 86.4629C45.3579 86.486 45.5355 86.3706 45.6855 86.1907L45.6716 86.1099L45.7431 86.0684C45.8816 87.8541 46.0777 89.6328 46.2645 91.4115C46.7098 95.6449 46.9636 99.899 47.4203 104.132C47.6718 106.467 47.7318 108.816 48.0871 111.146C48.3501 112.871 48.2716 114.65 48.3616 116.403C48.3985 117.105 47.8149 117.797 48.3316 118.503C48.4816 119.126 48.4354 119.746 48.3247 120.369C48.0594 120.411 47.9417 120.568 47.9164 120.835C47.6857 123.241 47.4042 125.645 47.2404 128.056C47.1966 128.702 46.6383 129.364 47.1966 130.026C47.1181 131.032 47.0374 132.036 46.9589 133.042C46.6983 133.242 46.5714 133.531 46.5483 133.833C46.366 136.188 45.8447 138.523 46.0754 140.906C46.0846 140.976 46.0754 141.04 46.0407 141.102C45.6901 142.242 45.464 143.393 45.6878 144.591L45.7593 144.63L45.7501 144.711C45.4525 144.598 45.3971 144.791 45.3648 145.015C44.878 145.756 44.1582 146.153 43.3369 146.418C40.6746 147.276 38.0561 146.932 35.4515 146.15C35.3016 146.079 35.1516 146.005 35.0016 145.933C34.9186 145.869 34.8355 145.806 34.7525 145.742C34.6625 145.661 34.5702 145.58 34.4803 145.5L34.501 145.523C34.1734 144.39 34.4895 143.262 34.5333 142.131C34.6141 140.032 34.6141 137.93 34.7017 135.829C34.9047 130.984 35.1747 126.144 35.4238 121.301C35.5899 118.065 35.7076 114.791 34.7571 111.619C34.4318 110.532 34.5033 109.305 33.6728 108.384C33.5067 107.611 33.3383 106.839 33.1722 106.066C33.712 104.898 32.8676 103.895 32.7592 102.801C32.7062 102.261 32.7707 101.555 32.0763 101.249C32.0579 101.163 32.0394 101.08 32.0233 100.995C32.5285 100.321 32.0971 99.6891 31.9125 99.0593C31.8456 98.8263 31.6103 98.727 31.3542 98.7755C31.1143 98.8216 31.1097 99.0224 31.0728 99.2115C30.9413 99.9082 30.8513 100.612 30.7544 101.313C30.4914 103.214 30.143 105.104 30.1638 107.032C30.1707 107.104 30.1569 107.171 30.1223 107.235C29.7186 108.204 29.6263 109.217 29.7093 110.253C29.7093 110.253 29.7324 110.225 29.7301 110.225C29.0218 112.8 28.6758 115.43 28.5466 118.092C28.5558 118.161 28.5466 118.228 28.5235 118.295C28.1752 118.554 28.3297 118.92 28.3182 119.25L28.3274 119.234Z" fill="#223849"/>
<path d="M0.685123 57.4538C2.34849 51.151 4.00954 44.8483 5.67983 38.5501C6.54727 35.2764 8.60975 32.9901 11.5904 31.4675C13.5606 30.4593 15.5239 29.4327 17.4895 28.4153C17.6094 28.5999 17.6625 28.5214 17.6971 28.3623L17.6902 28.383C18.553 28.3646 18.5115 28.9875 18.3592 29.4927C17.8863 31.073 17.9717 32.7571 17.4641 34.3144C17.1411 35.3064 17.5126 35.6571 18.4077 35.9131C19.5312 36.2338 19.6004 36.536 18.7745 37.3481C18.2508 37.8626 17.9624 38.4278 18.2646 39.0876C20.1472 43.1964 21.4553 47.5152 22.9456 51.767C23.0517 52.0669 23.0286 52.443 23.4255 52.6321C23.5754 52.1615 23.3124 51.7855 23.1971 51.4002C22.731 49.8683 22.212 48.3526 21.7483 46.8185C21.0538 44.5183 20.4125 42.1767 19.3213 40.0496C18.643 38.73 18.8829 37.9133 19.8219 36.9905C20.717 36.1116 20.6893 35.9962 19.4643 35.634C18.4607 35.3364 18.0501 34.9557 18.3039 33.7538C18.7284 31.7513 18.8599 29.6865 19.1159 27.6471C20.0318 26.8119 20.9477 25.9768 21.8636 25.144C22.1128 25.3839 22.0551 25.7069 22.0989 26.0045C22.6388 29.5988 23.6331 33.0755 24.8489 36.4922L24.842 36.4784C24.8927 36.7391 24.9273 37.0067 24.9988 37.2628C26.0578 41.0001 26.6115 44.8113 26.6784 48.6941C26.2608 49.4069 26.4707 50.189 26.4915 50.9273C26.5422 52.5537 26.2308 54.194 26.6737 55.8043C26.503 60.9305 25.977 66.0175 25.0219 71.0584C22.8625 70.1032 20.6986 69.162 18.5484 68.1838C17.2011 67.5701 15.7454 67.2125 14.465 66.4443C14.7672 65.9991 14.7487 65.4938 14.698 64.9978C14.2135 60.2938 14.5319 55.6036 14.9056 50.9134C14.9771 50.0068 15.0717 49.077 14.8203 48.1127C14.4165 48.4172 14.4096 48.7956 14.3081 49.1093C13.5768 51.4002 12.91 53.7095 12.1487 55.9912C11.8327 56.9371 11.3759 57.8299 11.4635 58.8657C10.1878 61.0274 9.89707 62.0517 11.0183 63.8743C11.0206 64.4464 11.2674 64.9517 11.4589 65.4707C13.2469 70.2601 14.9425 75.0841 17.0973 79.7258C17.3211 80.2103 17.6556 80.6856 16.8135 80.8955C15.3163 81.5115 13.9759 82.4643 12.4025 82.9303C11.9319 83.071 11.2951 82.8611 11.0067 83.4794C10.6007 83.5855 10.3239 83.6478 9.99627 83.1541C7.82998 79.8804 5.66368 76.6114 3.96571 73.0608C3.49969 72.0827 3.05213 71.0953 2.59765 70.1125C1.79019 68.5598 1.1719 66.9334 0.680509 65.2562C0.899676 65.0924 0.92736 64.8502 0.851229 64.6333C0.110674 62.5247 0.329841 60.4207 0.844307 58.3097C0.915825 58.0214 0.961966 57.6961 0.682816 57.4538H0.685123ZM23.5939 53.5803C23.6262 53.5157 23.6815 53.4558 23.6792 53.3981C23.6792 53.3404 23.6192 53.285 23.5869 53.2274C23.557 53.285 23.5016 53.3427 23.5016 53.4004C23.5016 53.4581 23.5593 53.5134 23.5939 53.578V53.5803Z" fill="#BF9E74"/>
<path d="M24.8463 36.4952C23.6282 33.0785 22.6339 29.6018 22.0963 26.0075C22.0525 25.7098 22.1102 25.3869 21.861 25.1469C21.9418 24.4848 22.4793 24.3902 22.9776 24.2472C23.3744 25.6845 24.5764 26.4527 25.633 27.2878C28.3415 29.4242 30.5124 31.9688 32.0027 35.0833C31.9358 37.6625 32.6787 40.1426 32.9924 42.6757C33.6407 47.9196 33.8068 53.1865 34.0167 58.4442C34.2013 63.0744 34.1482 67.7184 34.3143 72.3532C34.3236 72.6393 34.109 73.0592 34.6235 73.2045C34.8311 72.9208 34.7781 72.607 34.7688 72.3094C34.6696 69.3633 34.7112 66.415 34.6143 63.4643C34.4458 58.4142 34.4043 53.3595 34.0675 48.3164C33.9268 46.2262 33.6015 44.1476 33.4584 42.0574C33.2969 39.6881 32.6556 37.3972 32.4364 35.0418C32.4595 33.5283 33.147 32.1534 33.3454 30.6769C33.5553 29.0758 33.32 27.4724 33.3985 25.869C33.8506 25.8621 34.3005 25.8552 34.7527 25.8483C35.9316 28.0399 37.1266 30.227 37.3273 32.7832C36.6283 31.775 35.5371 31.4013 34.4528 31.016C33.9752 30.8453 33.7584 31.136 33.5576 31.5051C33.3477 31.8927 33.5276 32.1372 33.8645 32.1926C35.1172 32.3979 36.2038 33.15 37.4819 33.2538C37.5649 33.6275 37.6826 33.9967 37.7264 34.3727C38.4255 40.4886 39.429 46.563 39.9158 52.7089C40.4118 58.9702 40.6748 65.2407 40.9955 71.5089C39.4567 72.374 37.851 73.073 36.1184 73.4491C34.5312 73.7398 32.8771 73.6336 31.3498 74.2704C30.8077 74.2612 30.2655 74.2496 29.7234 74.2404C28.9459 72.9162 27.5801 72.4017 26.3113 71.7534C25.8753 71.5296 25.4485 71.2897 25.017 71.059C25.9745 66.0182 26.4981 60.9312 26.6689 55.805C26.6689 53.4357 26.6689 51.064 26.6712 48.6947C26.6066 44.812 26.0506 41.0008 24.9917 37.2634C24.9201 37.0073 24.8855 36.7397 24.8348 36.479C25.4808 36.772 25.8153 36.2829 26.1936 35.93C27.2202 34.9725 28.2215 33.9874 29.5365 33.4015C29.8618 33.2561 30.2747 33.0231 29.991 32.534C29.7672 32.1487 29.4258 32.0403 29.0243 32.3056C28.676 32.534 28.3045 32.7347 27.9862 32.9977C27.1649 33.676 26.4082 34.435 25.5477 35.0556C25.0078 35.4455 24.7956 35.8769 24.8417 36.4952H24.8463Z" fill="#F9F2EB"/>
<path d="M37.327 32.7823C37.1263 30.2262 35.9313 28.0414 34.7524 25.8474C34.7939 25.3952 35.14 25.4068 35.4629 25.3814C37.4516 26.0527 39.4218 26.7795 41.4312 27.3816C45.014 28.4544 46.9242 30.9206 47.6233 34.4872C48.1239 37.048 48.3061 39.6365 48.3523 42.2365C47.8932 43.8284 48.1954 45.4456 48.2116 47.0513C48.2116 47.1297 48.4353 47.2082 48.5553 47.2866C48.5599 47.7572 48.5668 48.2279 48.5714 48.6985C48.2692 48.9707 48.3823 49.3352 48.3707 49.6674C48.2162 53.5502 48.5484 57.4167 48.8829 61.2741C48.9429 61.9639 48.6799 62.8798 49.4781 63.4196C49.4873 63.5788 49.4966 63.7403 49.5058 63.8995C49.0928 64.4532 49.2636 65.0853 49.3374 65.6667C49.5981 67.7407 49.8519 69.8193 50.2394 71.8726C50.5347 73.4298 50.4517 75.0609 51.1046 76.5512C51.1322 76.6181 51.1438 76.6896 51.1438 76.7611C51.2245 78.0877 51.3076 79.4142 51.3883 80.7408C51.3883 80.7408 51.3837 80.7223 51.386 80.7223C51.2868 80.8169 51.1853 80.9092 51.0861 81.0038C50.7031 81.3613 50.221 81.4882 49.7296 81.5967C49.4481 81.2944 49.0467 81.329 48.7583 81.4375C47.9693 81.7328 47.7755 81.5113 47.6002 80.6877C46.6105 76.0713 46.5597 71.3581 46.3798 66.6956C46.156 60.8819 45.9045 55.0567 46.0568 49.2291C46.1006 47.5796 46.0706 45.9301 46.0522 44.2782C46.0499 44.0222 46.2252 43.6461 45.7154 43.5169C45.4247 44.712 45.8007 45.8678 45.8123 47.0259C45.8838 54.6137 45.6946 62.2061 46.0637 69.7916C46.2137 72.8807 46.3013 75.9768 46.5782 79.0543C46.6612 79.9794 46.5436 80.9761 46.9842 81.8643C46.9888 82.2426 46.9934 82.6233 46.9981 83.0016C46.4974 83.9014 47.0096 85.0803 46.1998 85.8969C46.006 85.8347 45.8492 85.8762 45.743 86.0584L45.6715 86.1C45.6715 86.1 45.6854 86.1807 45.6831 86.1807C45.4431 86.1669 45.2401 86.2315 45.1132 86.4529L45.1294 86.4368C44.9425 86.4622 44.7441 86.4645 44.6518 86.679L44.6587 86.656C44.5203 86.686 44.3819 86.7159 44.2435 86.7436C42.3333 87.1358 41.9918 86.8474 41.8903 84.9418C41.7242 81.8458 41.512 78.7521 41.3205 75.6584C41.1728 74.2788 41.3597 72.8738 40.9929 71.5127C40.6722 65.2445 40.4069 58.974 39.9132 52.7127C39.4264 46.5668 38.4229 40.4924 37.7238 34.3765C37.68 33.9981 37.5623 33.629 37.4793 33.2576C37.4908 33.0799 37.4931 32.9046 37.3224 32.7869L37.327 32.7823ZM40.5361 33.6982C40.5061 33.599 40.4761 33.4975 40.4461 33.3983C40.4161 33.4168 40.3884 33.4375 40.3584 33.456C40.4161 33.539 40.4738 33.6198 40.5292 33.7028C41.7473 34.3142 42.0264 35.3085 41.9434 36.6166C41.8303 38.4138 41.9434 40.2225 41.9088 42.0266C41.8765 43.6692 41.8511 45.3095 41.7565 46.9544C41.6504 48.8069 41.242 50.6756 41.5812 52.5512C41.6665 52.1406 41.6388 51.7184 41.715 51.3147C42.4302 47.5081 42.264 43.6346 42.6101 39.798C42.737 38.3723 42.331 36.9857 42.3656 35.5669C42.4002 34.155 42.031 33.8136 40.5338 33.7005L40.5361 33.6982Z" fill="#BF9E74"/>
<path d="M35.4634 25.3818C35.1404 25.4072 34.7943 25.3957 34.7528 25.8478C34.3006 25.8548 33.8508 25.8617 33.3986 25.8686C30.471 26.1662 27.9263 25.0173 25.4117 23.6838C25.6954 24.2537 25.993 24.7405 26.376 25.1511C28.0094 26.8975 29.8873 28.028 32.3881 27.2274C33.0894 27.0037 33.1402 27.2759 33.1725 27.8526C33.2256 28.7939 32.9418 29.7605 33.3455 30.6787C33.1471 32.1552 32.4596 33.5302 32.4366 35.0436C32.2912 35.0575 32.1459 35.0713 32.0028 35.0875C30.5125 31.973 28.3393 29.426 25.6331 27.292C24.5765 26.4569 23.3723 25.691 22.9778 24.2514C23.017 23.3401 22.9708 22.4357 22.7655 21.5429C22.8324 20.4194 22.9039 19.4251 21.5912 18.7261C20.4446 18.117 19.8448 16.8897 19.7525 15.5193C19.7664 15.4409 19.7825 15.3647 19.7964 15.2863C20.0824 15.1086 20.0109 14.8018 20.0686 14.5411C21.1252 13.3576 21.6674 13.3599 23.0285 14.555C24.2558 15.6323 24.9803 15.4062 25.2917 13.8052C25.5685 12.3817 25.9215 10.9606 25.7831 9.48873C25.7208 8.81739 25.9377 8.28908 26.5052 7.91534C27.9494 7.9015 29.3936 7.88765 30.8378 7.87151C33.2694 7.79537 35.5164 7.03406 37.6966 6.02819C38.4279 6.30042 38.504 7.02252 38.6678 7.6085C39.9528 12.1903 39.6276 16.7674 38.4671 21.3122C38.0265 23.0425 36.873 24.3275 35.4634 25.3841V25.3818Z" fill="#F9B484"/>
<path d="M26.5056 7.91304C25.9357 8.28678 25.7189 8.81278 25.7835 9.48643C25.9219 10.9583 25.5689 12.3794 25.2921 13.8029C24.9806 15.4039 24.2562 15.6277 23.0289 14.5527C21.6677 13.3599 21.1256 13.3576 20.069 14.5411C19.7598 14.7095 19.7852 15.0002 19.7967 15.2863C19.7829 15.3647 19.7668 15.4409 19.7529 15.5193C19.6537 15.6716 19.5568 15.9553 19.4553 15.9553C19.1854 15.9553 19.1854 15.6485 19.1162 15.457C18.0665 12.4925 17.9188 9.49796 18.8301 6.47115L18.8186 6.48268C19.4438 6.46884 19.4922 6.01897 19.5245 5.55295L19.5084 5.57372C19.7391 5.50912 19.7644 5.32225 19.7806 5.12846C20.039 5.11693 20.3227 5.16768 20.4404 4.82855C20.6757 4.1549 20.9203 3.48355 21.1602 2.81221L21.151 2.82374C21.2317 2.743 21.3125 2.66225 21.3932 2.58151L21.384 2.59073C21.6008 2.58381 21.7969 2.55382 21.7946 2.27006L21.8385 2.30928L21.7854 2.2839C22.5998 2.33466 24.1455 1.57103 24.5238 0.927371C25.7327 0.382913 27.0177 0.182202 28.3258 0.0922282C28.5265 0.329852 28.8034 0.306781 29.0687 0.297553C31.4149 0.223729 33.7173 0.396755 35.8952 1.39339C36.0451 1.4626 36.2666 1.37955 36.4558 1.36571L36.4419 1.34725C36.465 1.63793 36.6588 1.66562 36.8872 1.64255L36.8664 1.62871C36.9587 1.70714 37.051 1.78558 37.141 1.86402L37.1156 1.83634C37.1433 2.13625 37.3048 2.30236 37.6116 2.3162C37.6116 2.3162 37.5793 2.29544 37.5793 2.29774C37.6623 2.40387 37.7454 2.5123 37.8284 2.61842C38.7836 3.795 38.6013 4.92775 37.6969 6.03281C35.5168 7.03868 33.2675 7.79999 30.8382 7.87613C29.4747 7.40088 28.0674 7.79077 26.6878 7.66849C26.5309 7.65465 26.381 7.69849 26.5079 7.91765L26.5056 7.91304Z" fill="#A55B24"/>
<path d="M15.1799 151.435C16.0796 151.745 16.9632 152.107 17.8791 152.351C19.9277 152.898 21.8818 152.584 23.7297 151.562C24.0988 151.359 24.4795 151.179 24.9155 151.175C26.7011 154.388 28.5514 157.558 30.8515 160.442C30.5977 160.661 30.6784 161.012 30.8053 161.143C31.7697 162.138 31.7743 163.384 31.802 164.632L31.8158 164.613C31.7374 164.701 31.6589 164.791 31.5782 164.879L31.5989 164.858C31.5136 164.939 31.4259 165.019 31.3406 165.1L31.3544 165.088C31.1352 165.056 30.9414 165.072 30.8722 165.333L30.8907 165.315C29.6426 165.543 28.3945 165.771 27.1464 166C26.9872 165.979 26.828 165.961 26.6688 165.94C26.3897 165.61 25.949 165.642 25.6145 165.608C24.3318 165.469 23.3213 164.479 22.0017 164.505L21.9625 164.484C21.8979 163.686 21.2889 163.57 20.6752 163.46L20.6821 163.467C20.6821 163.095 20.6521 162.754 20.1238 162.922C20.1238 162.922 20.1446 162.846 20.1446 162.844C20.1746 162.643 20.0869 162.585 19.9023 162.636L19.8562 162.618C20.0638 162.069 19.7916 161.875 19.2887 161.847C19.2079 161.769 19.1249 161.69 19.0441 161.614C19.4871 161.208 19.1364 161.192 18.8203 161.16L18.8319 161.173C18.8503 160.493 18.6358 159.965 17.9091 159.773L17.9183 159.778C17.9229 159.616 17.9298 159.452 17.9344 159.291C18.4927 158.32 17.7314 158.264 17.1339 158.23C16.1442 158.172 15.2006 157.722 14.903 156.933C14.2178 155.122 14.1279 153.219 15.1752 151.433L15.1799 151.435Z" fill="#563B2A"/>
<path d="M35.4582 146.138C38.0629 146.922 40.6813 147.264 43.3436 146.408C44.1649 146.143 44.8847 145.748 45.3715 145.005C45.4592 144.996 45.5491 144.989 45.6368 144.98C45.5999 145.324 45.7683 145.464 46.1005 145.439L46.0913 145.427C46.1028 145.628 46.0798 145.863 46.4097 145.737L46.4858 145.815C46.4373 146.422 46.7188 146.701 47.3232 146.659L47.3948 146.724C47.2771 147.054 47.5147 147.04 47.7177 147.058C47.8677 147.195 48.0177 147.331 48.1676 147.467C48.1538 147.834 48.2991 148.011 48.6867 147.901L48.6152 147.99L48.6821 147.898C48.689 148.064 48.7559 148.138 48.9243 148.053C48.9243 148.053 48.9912 148.099 48.9889 148.099C48.8943 148.433 49.1158 148.424 49.3373 148.42L49.3257 148.408C49.2888 148.941 49.658 148.911 50.0109 148.904C50.0848 148.964 50.1609 149.026 50.2347 149.086C50.3039 149.301 50.3178 149.603 50.6777 149.372C51.6051 149.972 52.5325 150.572 53.4599 151.172C53.5084 151.322 53.6099 151.384 53.7668 151.359L53.7114 151.379L53.7598 151.345C53.7898 151.816 54.009 151.97 54.4473 151.753L54.5027 151.788C54.4566 152.325 54.7173 152.402 55.1487 152.217L55.1902 152.249C55.1233 152.575 55.3355 152.581 55.5593 152.572L55.5409 152.558C55.6285 152.637 55.7162 152.715 55.8062 152.794L55.7877 152.775C55.8708 152.861 55.9538 152.946 56.0369 153.029L56.0207 153.013C56.0046 153.387 56.0346 153.717 56.5583 153.597L56.609 153.663C56.3552 154.028 56.6436 154.314 56.7497 154.625C57.1996 155.947 56.8536 156.822 55.5339 157.221C51.5682 158.418 48.0361 157.212 44.684 155.138C44.7463 154.45 44.1926 153.797 43.7935 153.952C42.9722 154.268 42.3608 153.647 41.6457 153.79L41.6572 153.8C41.6987 153.516 41.6226 153.269 41.3411 153.165C41.092 153.073 41.0412 153.283 41.002 153.47C40.9282 153.502 40.8567 153.534 40.7828 153.569C40.7021 153.488 40.6213 153.407 40.5383 153.327C39.6801 152.554 39.1125 151.165 37.5369 151.915C36.9924 151.061 35.8712 150.662 35.652 149.532C35.6336 149.442 35.2414 149.423 35.0222 149.372C35.1675 148.295 35.3129 147.215 35.4582 146.138Z" fill="#563B2A"/>
<path d="M2.59738 70.1098C3.05187 71.0926 3.49712 72.08 3.96545 73.0582C5.66342 76.6087 7.82971 79.8778 9.99601 83.1514C10.3236 83.6474 10.6028 83.5829 11.0065 83.4767C11.1726 83.5575 11.341 83.6359 11.5071 83.7167C11.7701 84.8702 12.0331 86.0237 12.2961 87.1772C11.0319 87.0272 9.98447 86.229 8.74791 85.9983C8.61641 85.553 8.18038 85.5184 7.85278 85.3639C5.788 84.388 3.70014 83.4583 1.64689 82.4593C0.145015 81.728 0.0411994 81.4258 0.454157 79.7394C1.16241 76.8556 1.87528 73.9741 2.59738 71.0949C2.68274 70.7558 2.80732 70.4351 2.59277 70.1052L2.59738 70.1098Z" fill="#896442"/>
<path d="M46.2044 85.8948C47.0141 85.0804 46.4997 83.8992 47.0026 82.9994C48.3891 82.9902 49.7457 82.831 51.0353 82.1528C51.8497 85.6664 52.4841 89.1085 50.7146 92.4675C49.8264 94.1516 48.989 95.8865 47.1918 96.8439C46.7327 93.2057 46.2828 89.5676 46.2044 85.8948ZM47.6301 91.9322C48.3799 92.4629 48.8805 92.2598 49.2266 91.4547C49.7964 90.1351 49.4158 88.7832 49.5311 87.2582C48.4814 88.8062 50.004 91.1017 47.6301 91.9346V91.9322Z" fill="#F9B383"/>
<path d="M46.9896 81.8634C46.549 80.9752 46.6666 79.9785 46.5836 79.0534C46.3067 75.9759 46.2191 72.8798 46.0691 69.7907C45.7 62.2052 45.8892 54.6151 45.8177 47.025C45.8061 45.8669 45.4324 44.7111 45.7208 43.516C46.2283 43.6452 46.053 44.0213 46.0576 44.2773C46.076 45.9269 46.106 47.5787 46.0622 49.2282C45.9099 55.0558 46.1614 60.8833 46.3852 66.6947C46.5651 71.3572 46.6159 76.0704 47.6056 80.6868C47.7809 81.5081 47.9747 81.7319 48.7637 81.4366C49.0521 81.3281 49.4535 81.2935 49.735 81.5958C48.826 81.7503 47.9286 82.011 46.9919 81.8657L46.9896 81.8634Z" fill="#AC8D64"/>
<path d="M19.1115 27.6488C18.8555 29.6883 18.724 31.753 18.2995 33.7555C18.0457 34.9575 18.4563 35.3382 19.4599 35.6358C20.6826 35.998 20.7126 36.111 19.8175 36.9923C18.8785 37.9151 18.6386 38.7295 19.3169 40.0514C20.4081 42.1808 21.0494 44.5201 21.7438 46.8202C22.2076 48.3544 22.7289 49.8701 23.1927 51.402C23.3103 51.7872 23.5733 52.1633 23.4211 52.6339C23.0242 52.4447 23.0473 52.0687 22.9412 51.7688C21.4509 47.5169 20.1428 43.1982 18.2602 39.0894C17.958 38.4296 18.2464 37.8643 18.7701 37.3499C19.596 36.5378 19.5268 36.2333 18.4033 35.9149C17.5082 35.6611 17.1367 35.3105 17.4597 34.3161C17.9673 32.7566 17.8819 31.0748 18.3548 29.4945C18.5071 28.9892 18.5486 28.3663 17.6858 28.3848C18.0895 28.0041 18.5878 27.8057 19.1092 27.6535L19.1115 27.6488Z" fill="#AC8D64"/>
<path d="M13.8458 90.3659C13.0845 89.9553 12.81 90.1652 12.8677 91.0372C12.9853 92.8598 13.2437 94.6777 13.1284 96.5141C13.0061 98.4497 13.5021 100.369 13.3337 102.307C13.2068 103.763 13.5782 105.182 13.6082 106.635C13.6844 110.365 13.832 114.096 13.7974 117.831C13.7882 118.752 13.7974 119.672 13.7882 120.59C13.7836 120.964 13.8643 121.379 13.4121 121.589C13.3983 121.176 13.3867 120.763 13.3752 120.348C13.5644 120.196 13.5782 120.039 13.3891 119.877C13.3983 119.421 13.4052 118.964 13.4144 118.507C13.4444 118.486 13.5021 118.459 13.4998 118.445C13.4859 118.382 13.4536 118.325 13.4283 118.265C13.4467 117.649 13.4629 117.033 13.4813 116.417C13.4859 116.313 13.4906 116.207 13.4952 116.103C13.4883 115.713 13.479 115.323 13.4721 114.936C13.5828 114.73 13.5967 114.534 13.4283 114.352C13.2391 109.304 13.0591 104.256 12.8607 99.2087C12.7246 95.7297 12.5654 92.2507 12.4155 88.7694C12.5401 88.721 12.6646 88.6749 12.7869 88.6264C13.1399 89.2055 13.4929 89.7845 13.8481 90.3659H13.8458Z" fill="#343C4B"/>
<path d="M33.68 108.369C34.5105 109.29 34.439 110.515 34.7643 111.604C35.7148 114.776 35.5994 118.05 35.431 121.287C35.1819 126.129 34.9096 130.969 34.7089 135.814C34.6212 137.916 34.6212 140.017 34.5405 142.117C34.4967 143.247 34.1806 144.375 34.5082 145.508C34.2337 145.333 34.056 145.086 34.0722 144.754C34.1552 142.998 33.9361 141.238 34.1991 139.482C34.3167 138.691 34.319 137.872 34.2913 137.069C34.1921 134.197 34.4574 131.329 34.5959 128.471C34.7458 125.342 34.9488 122.209 35.2003 119.081C35.4956 115.406 34.4113 111.908 33.68 108.367V108.369Z" fill="#343C4B"/>
<path d="M46.2049 85.8945C46.2834 89.5673 46.7332 93.2055 47.1923 96.8437C47.25 99.9604 47.7206 103.043 47.9375 106.146C48.1521 109.214 48.7173 112.255 48.6204 115.346C48.5881 116.4 48.7081 117.466 48.3366 118.49C47.8198 117.785 48.4035 117.092 48.3666 116.391C48.2766 114.638 48.3528 112.861 48.0921 111.133C47.7391 108.803 47.6768 106.455 47.4253 104.12C46.9686 99.8866 46.7148 95.6325 46.2695 91.3991C46.0827 89.6181 45.8866 87.8416 45.7481 86.056C45.8543 85.8738 46.0111 85.8322 46.2049 85.8945Z" fill="#343C4B"/>
<path d="M18.8301 6.46579C17.9188 9.4926 18.0641 12.4894 19.1161 15.4516C19.1854 15.6454 19.1854 15.9523 19.4553 15.95C19.5545 15.95 19.6537 15.6685 19.7529 15.5139C19.8452 16.8843 20.445 18.1116 21.5916 18.7207C22.9043 19.4174 22.8328 20.4117 22.7659 21.5376C19.1323 17.641 16.8691 13.2877 18.1472 7.74619C18.2602 7.25248 18.4333 6.80031 18.8324 6.46579H18.8301Z" fill="#A9461C"/>
<path d="M13.5188 121.825C13.5372 124.886 13.5626 127.947 13.5695 131.009C13.5787 135.328 13.7771 139.642 13.874 143.958C13.9225 146.148 13.791 148.383 14.2362 150.563C13.4588 149.873 13.6618 148.891 13.5949 148.046C13.4726 146.505 13.5603 144.948 13.5603 143.398C13.5603 143.312 13.5557 143.225 13.5557 143.139C13.5349 142.415 13.5141 141.693 13.4934 140.968C13.6018 140.615 13.6664 140.262 13.4288 139.93C13.2281 134.02 13.3619 128.107 13.3273 122.194C13.3273 122.028 13.3619 121.896 13.5234 121.825H13.5188Z" fill="#343C4B"/>
<path d="M44.6825 155.142C48.0346 157.214 51.5689 158.423 55.5324 157.225C56.852 156.826 57.1981 155.954 56.7482 154.63C56.6421 154.316 56.3537 154.032 56.6075 153.668C57.9686 155.811 57.3642 157.361 54.9187 157.908C52.0165 158.556 49.3081 157.758 46.655 156.697C45.8452 156.374 45.0931 155.906 44.3157 155.504C44.3664 155.458 44.4149 155.407 44.4633 155.357C44.5371 155.285 44.6086 155.214 44.6825 155.142Z" fill="#433325"/>
<path d="M12.7849 88.6259C12.6603 88.6743 12.5358 88.7205 12.4135 88.7689C11.7098 88.6005 10.9877 88.4806 10.3026 88.2499C9.25286 87.8969 8.63457 87.1886 8.74992 86.0028C9.98649 86.2335 11.0339 87.0317 12.2958 87.1817C12.4896 87.6546 12.8887 88.0561 12.7849 88.6282V88.6259Z" fill="#AC8D64"/>
<path d="M49.4809 63.4176C48.6803 62.8801 48.9456 61.9642 48.8857 61.2721C48.5488 57.4124 48.2166 53.5482 48.3735 49.6654C48.3873 49.3332 48.272 48.971 48.5742 48.6965C48.7034 53.6151 48.9064 58.5267 49.4809 63.4176Z" fill="#AC8D64"/>
<path d="M15.1803 151.435C14.1329 153.218 14.2229 155.124 14.9081 156.935C15.2057 157.724 16.1493 158.173 17.139 158.231C17.7365 158.266 18.4978 158.319 17.9395 159.292C17.8172 159.304 17.695 159.318 17.5704 159.329C17.1667 159.048 16.8021 158.651 16.3546 158.506C14.6197 157.94 14.0845 156.614 14.0614 154.994C14.0429 153.702 14.1906 152.415 14.7258 151.206C14.8781 151.282 15.028 151.358 15.1803 151.437V151.435Z" fill="#433325"/>
<path d="M51.1075 76.5463C50.4546 75.0559 50.5377 73.4272 50.2424 71.8676C49.8525 69.8167 49.5987 67.7357 49.3404 65.6617C49.2665 65.0803 49.0958 64.4482 49.5088 63.8945C50.0417 67.6573 50.5815 71.4177 51.1006 75.1805C51.1629 75.6258 51.1075 76.0895 51.1075 76.5439V76.5463Z" fill="#AC8D64"/>
<path d="M30.1732 107.018C30.1525 105.087 30.5009 103.2 30.7639 101.299C30.8607 100.597 30.9484 99.8937 31.0822 99.197C31.1191 99.0078 31.1214 98.8071 31.3637 98.7609C31.6198 98.7125 31.8551 98.8117 31.922 99.0447C32.1065 99.6768 32.538 100.307 32.0327 100.98C31.8874 100.376 31.742 99.7691 31.5967 99.1647C31.5321 99.1716 31.4698 99.1785 31.4052 99.1854C31.0707 101.64 30.7362 104.095 30.4063 106.552C30.3809 106.741 30.404 106.939 30.1756 107.02L30.1732 107.018Z" fill="#343C4B"/>
<path d="M35.0226 149.372C35.2418 149.423 35.634 149.442 35.6524 149.532C35.8716 150.662 36.9928 151.061 37.5373 151.915C37.1612 152.102 36.3515 151.23 36.3745 152.392C35.9939 152.24 35.6132 152.088 35.2326 151.936C35.0526 151.613 34.612 151.356 34.965 150.895C34.9834 150.388 35.0042 149.88 35.0226 149.372Z" fill="#433325"/>
<path d="M47.1986 130.015C46.6403 129.353 47.1986 128.691 47.2424 128.045C47.4062 125.634 47.6876 123.23 47.9183 120.824C47.9437 120.556 48.0614 120.399 48.3267 120.358C48.036 123.258 47.7522 126.158 47.45 129.058C47.4154 129.383 47.2839 129.697 47.1986 130.015Z" fill="#343C4B"/>
<path d="M25.5638 145.038C25.3977 141.333 25.9537 137.674 26.2674 133.999C26.2767 133.899 26.3828 133.812 26.4451 133.717C26.5927 135.394 26.1613 137.03 26.076 138.677C25.9791 140.521 25.6976 142.362 25.7784 144.219C25.7899 144.493 25.9306 144.844 25.5638 145.035V145.038Z" fill="#343C4B"/>
<path d="M46.0798 140.895C45.849 138.512 46.3704 136.177 46.5527 133.822C46.5758 133.522 46.7026 133.231 46.9633 133.03C46.6127 135.647 46.8088 138.323 46.0798 140.895Z" fill="#343C4B"/>
<path d="M0.684777 57.4533C0.963927 57.6955 0.917786 58.0208 0.846269 58.3092C0.331802 60.4201 0.110328 62.5218 0.85319 64.6327C0.929322 64.8496 0.89933 65.0918 0.68247 65.2556C-0.369533 62.6533 -0.0719269 60.0533 0.687084 57.4533H0.684777Z" fill="#AC8D64"/>
<path d="M28.5584 118.076C28.6853 115.413 29.0313 112.786 29.7419 110.209C29.5458 112.86 29.262 115.499 28.5584 118.076Z" fill="#343C4B"/>
<path d="M36.4528 1.36016C36.2637 1.3717 36.0445 1.45706 35.8922 1.38785C33.7167 0.391213 31.412 0.218186 29.0658 0.292011C28.8004 0.301239 28.5236 0.324309 28.3229 0.0866855C30.7037 -0.0771132 33.0731 -0.0771132 35.3524 0.771872C35.7377 0.914907 36.086 1.16176 36.4505 1.36247L36.4528 1.36016Z" fill="#A9461C"/>
<path d="M41.6407 153.792C42.3559 153.649 42.9696 154.269 43.7886 153.953C44.19 153.799 44.7437 154.452 44.6791 155.139C44.603 155.139 44.5268 155.139 44.4484 155.137C44.4161 155.118 44.3838 155.102 44.3515 155.084C44.3838 155.102 44.4138 155.121 44.4461 155.141C44.4507 155.213 44.4553 155.282 44.4599 155.354C44.4138 155.404 44.363 155.453 44.3123 155.501C43.3641 155.019 42.4551 154.477 41.6361 153.792H41.6407Z" fill="#433325"/>
<path d="M27.4114 125.677C27.416 123.557 27.6467 121.467 28.2881 119.435C28.2812 121.555 27.9605 123.631 27.4114 125.677Z" fill="#343C4B"/>
<path d="M26.6645 131.625C26.5123 130.07 26.9091 128.559 27.0821 127.031C27.1328 126.584 26.9252 126.002 27.4328 125.647C27.2505 127.65 27.2989 129.68 26.6622 131.625H26.6645Z" fill="#343C4B"/>
<path d="M32.0827 101.232C32.7748 101.538 32.7125 102.244 32.7655 102.784C32.874 103.878 33.716 104.881 33.1785 106.049C32.814 104.443 32.4495 102.837 32.085 101.229L32.0827 101.232Z" fill="#343C4B"/>
<path d="M31.805 164.631C31.775 163.383 31.7704 162.137 30.8083 161.143C30.6815 161.012 30.5984 160.661 30.8545 160.442C31.6781 161.722 32.677 162.966 31.8073 164.631H31.805Z" fill="#433325"/>
<path d="M48.5555 47.2867C48.4355 47.2082 48.2117 47.1321 48.2117 47.0514C48.1979 45.4457 47.8957 43.8284 48.3525 42.2366C48.4194 43.9184 48.4886 45.6025 48.5555 47.2844V47.2867Z" fill="#AC8D64"/>
<path d="M35.0227 149.372C35.0043 149.88 34.9835 150.387 34.9651 150.895C34.5336 149.767 34.7643 148.616 34.8705 147.476C34.9189 146.957 35.1035 146.452 35.0112 145.919C35.1612 145.993 35.3111 146.064 35.4611 146.136C35.3157 147.213 35.1704 148.293 35.025 149.37L35.0227 149.372Z" fill="#343C4B"/>
<path d="M45.6926 144.579C45.4689 143.381 45.6926 142.228 46.0456 141.091C46.1587 142.276 46.1817 143.455 45.6926 144.579Z" fill="#343C4B"/>
<path d="M51.3939 80.738C51.3132 79.4115 51.2301 78.0849 51.1494 76.7584C51.4908 78.0688 52.1391 79.3607 51.3939 80.738Z" fill="#AC8D64"/>
<path d="M24.5229 0.918358C24.1446 1.56202 22.5989 2.32564 21.7845 2.27489C22.5735 1.57355 23.5055 1.1606 24.5229 0.918358Z" fill="#A9461C"/>
<path d="M21.1596 2.80413C20.9197 3.47547 20.6751 4.14682 20.4398 4.82047C20.3222 5.1596 20.0407 5.10885 19.78 5.12038C20.0615 4.24141 20.4329 3.4178 21.1573 2.80413H21.1596Z" fill="#A9461C"/>
<path d="M40.5367 153.329C40.6175 153.41 40.6982 153.491 40.7813 153.571C40.3406 154.333 39.6601 154.033 39.0718 153.901C38.6081 153.797 38.1836 153.525 37.7429 153.327L37.7752 153.292C38.0705 153.297 38.3635 153.301 38.6588 153.306C38.7765 153.481 38.9541 153.523 39.1479 153.525C39.6693 153.867 40.1284 153.777 40.5367 153.329Z" fill="#343C4B"/>
<path d="M29.7188 110.236C29.6357 109.2 29.7257 108.187 30.1317 107.218C30.2679 108.261 30.201 109.276 29.7188 110.236Z" fill="#343C4B"/>
<path d="M35.2302 151.935C35.6109 152.087 35.9915 152.24 36.3745 152.392C36.8382 152.611 37.2996 152.833 37.7633 153.052C37.7679 153.133 37.7725 153.211 37.7748 153.292L37.7425 153.326C36.8128 153.031 35.8231 152.842 35.2325 151.935H35.2302Z" fill="#343C4B"/>
<path d="M25.5177 149.601C25.1832 148.223 25.1855 146.848 25.5247 145.473C25.6631 146.848 25.5962 148.226 25.5177 149.601Z" fill="#343C4B"/>
<path d="M17.9158 159.771C18.6425 159.962 18.8548 160.49 18.8386 161.171C18.5318 160.705 18.225 160.237 17.9158 159.771Z" fill="#343C4B"/>
<path d="M47.3219 146.662C46.7174 146.701 46.436 146.424 46.4844 145.818C46.7636 146.099 47.0427 146.381 47.3219 146.662Z" fill="#433325"/>
<path d="M19.5234 5.54743C19.4935 6.01345 19.445 6.46332 18.8175 6.47716C18.9928 6.12188 19.2005 5.79197 19.5234 5.54743Z" fill="#A9461C"/>
<path d="M41.0003 153.472C41.0396 153.285 41.0926 153.078 41.3395 153.168C41.6186 153.271 41.6971 153.516 41.6555 153.802C41.4364 153.691 41.2195 153.583 41.0003 153.472Z" fill="#433325"/>
<path d="M28.3269 119.234C28.3384 118.904 28.1862 118.537 28.5322 118.279C28.5714 118.62 28.7237 118.987 28.3269 119.234Z" fill="#343C4B"/>
<path d="M50.0092 148.909C49.6563 148.918 49.2871 148.946 49.3241 148.413C49.5524 148.577 49.7808 148.743 50.0092 148.909Z" fill="#433325"/>
<path d="M55.1473 152.219C54.7136 152.404 54.4552 152.328 54.5014 151.79C54.7159 151.933 54.9328 152.076 55.1473 152.219Z" fill="#433325"/>
<path d="M13.4239 139.929C13.6615 140.261 13.5969 140.612 13.4884 140.967C13.3293 140.63 13.3362 140.282 13.4239 139.929Z" fill="#404850"/>
<path d="M56.5568 153.599C56.0354 153.719 56.0054 153.389 56.0193 153.015C56.1992 153.209 56.3768 153.405 56.5568 153.599Z" fill="#433325"/>
<path d="M54.4428 151.758C54.0045 151.975 53.7876 151.82 53.7553 151.349C53.9837 151.486 54.2121 151.622 54.4428 151.758Z" fill="#433325"/>
<path d="M37.611 2.31069C37.3042 2.29685 37.145 2.13074 37.115 1.83083C37.3549 1.91388 37.521 2.07307 37.611 2.31069Z" fill="#A9461C"/>
<path d="M14.2198 150.552C14.5636 150.517 14.6905 150.709 14.7089 151.016C14.5451 150.861 14.3836 150.706 14.2198 150.552Z" fill="#343C4B"/>
<path d="M50.6759 149.377C50.3183 149.608 50.3022 149.308 50.233 149.091C50.3806 149.185 50.5283 149.282 50.6759 149.377Z" fill="#433325"/>
<path d="M48.6847 147.906C48.2971 148.016 48.1518 147.839 48.1656 147.472C48.3386 147.617 48.5117 147.763 48.6847 147.906Z" fill="#433325"/>
<path d="M45.6377 144.978C45.55 144.987 45.46 144.994 45.3724 145.004C45.4024 144.78 45.4577 144.586 45.7576 144.699C45.7415 144.794 45.723 144.886 45.7069 144.981L45.6377 144.978Z" fill="#343C4B"/>
<path d="M45.6368 144.978C45.6368 144.978 45.706 144.982 45.706 144.98C45.8375 145.132 45.969 145.285 46.1005 145.437C45.7706 145.46 45.6022 145.322 45.6368 144.978Z" fill="#433325"/>
<path d="M46.408 145.737C46.078 145.864 46.1011 145.629 46.0896 145.428L46.408 145.737Z" fill="#433325"/>
<path d="M26.4835 133.519C26.4719 133.33 26.4835 133.15 26.6657 133.032C26.7211 133.238 26.7372 133.427 26.4835 133.519Z" fill="#343C4B"/>
<path d="M17.5714 159.328C17.6937 159.316 17.816 159.302 17.9406 159.291C17.9359 159.452 17.929 159.616 17.9244 159.778C17.8068 159.628 17.6891 159.478 17.5714 159.328Z" fill="#343C4B"/>
<path d="M21.7939 2.26057C21.7939 2.54434 21.6001 2.57663 21.3832 2.58125C21.5193 2.47513 21.6577 2.3667 21.7939 2.26057Z" fill="#A9461C"/>
<path d="M13.3869 119.879C13.5761 120.041 13.5623 120.197 13.3731 120.35C13.3777 120.193 13.3823 120.036 13.3869 119.879Z" fill="#404850"/>
<path d="M47.7164 147.061C47.5134 147.042 47.2758 147.056 47.3934 146.726C47.5019 146.837 47.608 146.95 47.7164 147.061Z" fill="#433325"/>
<path d="M13.4261 114.351C13.5968 114.533 13.5806 114.732 13.4699 114.935C13.3545 114.748 13.3453 114.552 13.4261 114.351Z" fill="#404850"/>
<path d="M19.7805 5.12161C19.7643 5.3154 19.7366 5.50458 19.5082 5.56686C19.5982 5.41922 19.6905 5.26926 19.7805 5.12161Z" fill="#A9461C"/>
<path d="M55.5577 152.575C55.3339 152.582 55.1216 152.575 55.1886 152.252C55.3108 152.361 55.4354 152.469 55.5577 152.575Z" fill="#433325"/>
<path d="M49.3352 148.424C49.116 148.429 48.8945 148.438 48.9868 148.104C49.1022 148.21 49.2175 148.318 49.3352 148.424Z" fill="#433325"/>
<path d="M36.8862 1.6385C36.6578 1.66157 36.4617 1.63157 36.4409 1.3432C36.5909 1.4424 36.7385 1.5416 36.8862 1.6385Z" fill="#A9461C"/>
<path d="M37.1423 1.85912C37.05 1.78068 36.9577 1.70224 36.8677 1.62381C36.96 1.70224 37.0523 1.78068 37.1423 1.85912Z" fill="#A9461C"/>
<path d="M51.0885 80.9988C51.1877 80.9042 51.2893 80.8119 51.3885 80.7174C51.3654 80.895 51.2408 80.9619 51.0885 80.9988Z" fill="#AC8D64"/>
<path d="M17.6947 28.3621C17.6624 28.5213 17.607 28.5998 17.4871 28.4152C17.5517 28.3783 17.6209 28.3621 17.6947 28.3621Z" fill="#AC8D64"/>
<path d="M13.4242 118.266C13.4496 118.326 13.4819 118.384 13.4957 118.446C13.498 118.46 13.4404 118.487 13.4104 118.508C13.415 118.427 13.4196 118.347 13.4242 118.268V118.266Z" fill="#404850"/>
<path d="M37.8282 2.61363C37.7452 2.5075 37.6621 2.40138 37.5791 2.29295C37.6621 2.39907 37.7452 2.5075 37.8282 2.61363Z" fill="#A9461C"/>
<path d="M13.5511 143.139C13.5511 143.225 13.5557 143.312 13.5557 143.398C13.5396 143.338 13.5165 143.28 13.5096 143.22C13.5073 143.195 13.5373 143.165 13.5511 143.139Z" fill="#404850"/>
<path d="M48.9221 148.058C48.7536 148.144 48.6867 148.07 48.6798 147.904C48.7606 147.954 48.8413 148.007 48.9221 148.058Z" fill="#433325"/>
<path d="M56.0355 153.032C55.9524 152.946 55.8694 152.861 55.7863 152.778C55.8694 152.863 55.9524 152.949 56.0355 153.032Z" fill="#433325"/>
<path d="M55.8044 152.796C55.7167 152.718 55.629 152.64 55.539 152.561C55.6267 152.64 55.7144 152.718 55.8044 152.796Z" fill="#433325"/>
<path d="M53.7649 151.364C53.608 151.389 53.5088 151.327 53.458 151.177C53.5595 151.239 53.6634 151.301 53.7649 151.364Z" fill="#433325"/>
<path d="M25.0189 71.0599C25.4503 71.2929 25.8771 71.5328 26.3131 71.7543C27.582 72.4026 28.9477 72.917 29.7252 74.2413C29.1231 74.1767 28.7424 74.2528 28.6847 75.0464C28.6247 75.8654 28.3018 76.666 28.0964 77.4757C26.9821 81.2477 25.8678 85.022 24.7559 88.794C24.712 88.9393 24.6728 89.087 24.6497 89.2369C24.3975 90.7703 23.5278 91.5363 22.0405 91.5347C21.4153 91.0064 21.0669 90.3558 21.0992 89.4746C22.4581 90.162 23.0648 89.7952 22.931 88.3626C22.7188 86.0971 21.9759 84.1292 19.7427 83.0403C18.8868 82.6227 18.0886 82.0898 17.2626 81.6099C17.2973 81.2569 17.0712 81.0631 16.8174 80.8901C17.6595 80.6802 17.3249 80.2049 17.1012 79.7205C14.9464 75.0764 13.2507 70.2524 11.4628 65.4654C12.5425 65.5507 13.3938 66.3351 14.4642 66.4435C15.7446 67.2141 17.2004 67.5717 18.5477 68.183C20.6978 69.1589 22.8618 70.1002 25.0212 71.0576L25.0189 71.0599Z" fill="#896442"/>
<path d="M17.2613 81.6131C18.0872 82.093 18.8854 82.6259 19.7413 83.0435C21.9745 84.1324 22.7174 86.1026 22.9297 88.3658C23.0635 89.7985 22.4567 90.1653 21.0979 89.4778C21.0656 90.3591 21.4116 91.0073 22.0391 91.538C22.0207 92.5277 21.354 93.2105 20.588 92.8137C19.5429 92.2739 18.4033 92.4954 17.3374 92.1193C16.4861 91.8194 15.5956 91.5933 14.7559 91.2288C14.6751 91.1711 14.5944 91.1112 14.5136 91.0535C14.3591 90.8989 14.2022 90.7443 14.0476 90.5898C13.9807 90.5136 13.9161 90.4398 13.8492 90.3637C13.4962 89.7846 13.1433 89.2056 12.788 88.6242C12.8918 88.052 12.4927 87.6483 12.2989 87.1777C12.0359 86.0242 11.7729 84.8707 11.5099 83.7171C13.5747 83.4149 15.5103 82.7667 17.2613 81.6131Z" fill="#F9B484"/>
<path d="M40.9972 71.5106C41.3617 72.8717 41.1771 74.279 41.3247 75.6563C39.7168 75.8178 38.2218 76.5607 36.5861 76.5676C36.6392 75.4971 36.7615 74.4151 36.1201 73.4485C37.8527 73.0724 39.4584 72.3734 40.9972 71.5083V71.5106Z" fill="#563B2A"/>
<path d="M36.1205 73.448C36.7618 74.4146 36.6395 75.4966 36.5865 76.5671C35.1238 77.6306 33.4374 77.4991 31.7717 77.4599C31.0219 76.4771 31.3772 75.349 31.3541 74.2716C32.8814 73.6349 34.5355 73.7387 36.1228 73.4503L36.1205 73.448ZM35.6821 75.3674C35.9082 74.2924 35.4514 74.1147 34.5009 74.4239C33.9611 74.5992 33.3705 74.6407 32.7983 74.673C32.2862 74.703 32.187 74.9337 32.1801 75.4044C32.157 76.8347 32.2977 76.9708 33.7488 76.7171C34.088 76.6571 34.4271 76.5856 34.7685 76.5533C35.4999 76.484 35.9151 76.1841 35.6844 75.3674H35.6821Z" fill="#ED9C68"/>
<path d="M31.3518 74.272C31.3749 75.3494 31.0196 76.4775 31.7694 77.4603C30.5443 77.4649 29.3193 77.4718 28.0943 77.4764C28.3019 76.6667 28.6249 75.8661 28.6826 75.0472C28.7403 74.2535 29.1186 74.1774 29.723 74.242C30.2652 74.2512 30.8073 74.2628 31.3495 74.272H31.3518Z" fill="#563B2A"/>
<path d="M14.0444 90.5917C14.1989 90.7462 14.3558 90.9008 14.5104 91.0554C14.1828 91.0738 14.0282 90.9193 14.0444 90.5917Z" fill="#343C4B"/>
<path d="M14.5106 91.0538C14.5913 91.1115 14.6721 91.1714 14.7528 91.2291C14.6975 91.2753 14.6421 91.3214 14.5867 91.3675C14.5613 91.2637 14.5337 91.1576 14.5083 91.0538H14.5106Z" fill="#343C4B"/>
<path d="M44.248 86.7439C44.3864 86.7139 44.5248 86.6863 44.6632 86.6563C44.5709 86.9008 44.4417 86.97 44.248 86.7439Z" fill="#343C4B"/>
<path d="M44.6542 86.6768C44.7464 86.4622 44.9448 86.4599 45.1317 86.4345C45.0487 86.6629 44.8595 86.686 44.6542 86.6768Z" fill="#343C4B"/>
<path d="M45.1163 86.4505C45.2432 86.229 45.4462 86.1644 45.6861 86.1783C45.5385 86.3559 45.3608 86.4736 45.1163 86.4505Z" fill="#343C4B"/>
<path d="M14.4624 66.444C13.3919 66.3356 12.5406 65.5512 11.4609 65.4659C11.2694 64.9445 11.0226 64.4415 11.0203 63.8694C11.1679 62.1991 11.3156 60.5311 11.4655 58.8608C11.3779 57.8273 11.837 56.9322 12.1507 55.9863C12.9097 53.707 13.5788 51.3953 14.3101 49.1044C14.4093 48.7907 14.4185 48.4123 14.8223 48.1078C15.0737 49.0745 14.9815 50.0019 14.9076 50.9085C14.5316 55.601 14.2155 60.2889 14.7 64.9929C14.7507 65.4889 14.7669 65.9942 14.467 66.4394L14.4624 66.444Z" fill="#AC8D64"/>
<path d="M17.2606 81.6128C15.5095 82.7686 13.5716 83.4169 11.5091 83.7168C11.343 83.636 11.1746 83.5576 11.0085 83.4768C11.2969 82.8586 11.9336 83.0662 12.4043 82.9278C13.9777 82.4617 15.318 81.5066 16.8153 80.893C17.0714 81.0683 17.2952 81.2598 17.2606 81.6128Z" fill="#F9F2EB"/>
<path d="M26.673 48.6965C26.673 51.0658 26.673 53.4374 26.6707 55.8067C26.2277 54.1964 26.5392 52.5561 26.4884 50.9297C26.4653 50.1914 26.2577 49.4094 26.6753 48.6965H26.673Z" fill="#AC8D64"/>
<path d="M23.5938 53.5801C23.5569 53.5155 23.5015 53.4601 23.5015 53.4024C23.5015 53.3448 23.5569 53.2871 23.5869 53.2294C23.6192 53.2848 23.6768 53.3425 23.6792 53.4001C23.6792 53.4578 23.6284 53.5155 23.5938 53.5824V53.5801Z" fill="#AC8D64"/>
<path d="M32.0025 35.0827C32.1479 35.0689 32.2932 35.055 32.4362 35.0389C32.6554 37.3943 33.2968 39.6852 33.4583 42.0545C33.6013 44.1447 33.9266 46.2233 34.0673 48.3135C34.4041 53.3566 34.4457 58.4113 34.6141 63.4614C34.711 66.4121 34.6718 69.3605 34.7686 72.3065C34.7779 72.6018 34.8309 72.9156 34.6233 73.2017C34.1088 73.0563 34.3234 72.6364 34.3142 72.3504C34.1481 67.7156 34.2034 63.0715 34.0166 58.4413C33.8066 53.1836 33.6405 47.9167 32.9922 42.6728C32.6785 40.1397 31.9356 37.6597 32.0025 35.0804V35.0827Z" fill="#EEE2D1"/>
<path d="M33.3457 30.676C32.9419 29.7578 33.2257 28.7911 33.1726 27.8499C33.1403 27.2731 33.0896 27.0009 32.3883 27.2247C29.8874 28.0229 28.0072 26.8948 26.3762 25.1483C25.9932 24.74 25.6956 24.2532 25.4118 23.6811C27.9288 25.0145 30.4734 26.1657 33.3987 25.8658C33.3203 27.4669 33.5556 29.0726 33.3457 30.6737V30.676Z" fill="#ED9C68"/>
<path d="M24.8467 36.4943C24.8006 35.876 25.0128 35.4446 25.5527 35.0547C26.4132 34.4341 27.1699 33.6751 27.9912 32.9968C28.3096 32.7338 28.681 32.5331 29.0294 32.3047C29.4331 32.0394 29.7722 32.1455 29.996 32.5331C30.2821 33.0222 29.8668 33.2575 29.5415 33.4006C28.2265 33.9866 27.2253 34.9717 26.1986 35.9291C25.8203 36.282 25.4858 36.7734 24.8398 36.4781L24.8467 36.492V36.4943Z" fill="#EEE2D1"/>
<path d="M37.3278 32.7824C37.4985 32.9001 37.4962 33.0754 37.4847 33.2531C36.2066 33.1493 35.12 32.3972 33.8673 32.1918C33.5281 32.1365 33.3505 31.8919 33.5604 31.5044C33.7588 31.1352 33.978 30.8445 34.4556 31.0153C35.5375 31.4005 36.6311 31.772 37.3301 32.7824H37.3278Z" fill="#EEE2D1"/>
<path d="M40.536 33.699C42.0332 33.812 42.4024 34.1535 42.3677 35.5653C42.3331 36.9842 42.7392 38.3707 42.6123 39.7964C42.2685 43.6307 42.4323 47.5042 41.7172 51.3131C41.641 51.7168 41.671 52.139 41.5834 52.5497C41.2442 50.6764 41.6503 48.8077 41.7587 46.9528C41.8533 45.3102 41.8787 43.6676 41.911 42.025C41.9479 40.2209 41.8325 38.4122 41.9456 36.615C42.0286 35.307 41.7495 34.3126 40.5314 33.7013L40.5383 33.6967L40.536 33.699Z" fill="#AC8D64"/>
<path d="M40.5294 33.7029C40.4717 33.6199 40.414 33.5391 40.3587 33.4561C40.3887 33.4376 40.4164 33.4168 40.4463 33.3984C40.4763 33.4976 40.5063 33.5991 40.5363 33.6983L40.5294 33.7029Z" fill="#AC8D64"/>
<path d="M26.505 7.91288C26.3781 7.69372 26.5303 7.64988 26.6849 7.66372C28.0668 7.78369 29.4718 7.39611 30.8352 7.87136C29.391 7.8852 27.9468 7.89904 26.5026 7.91519L26.505 7.91288Z" fill="#A9461C"/>
<path d="M19.7965 15.2829C19.7849 14.9968 19.7618 14.7084 20.0687 14.5377C20.011 14.7984 20.0825 15.1052 19.7965 15.2829Z" fill="#A9461C"/>
<path d="M37.7722 153.289C37.7676 153.209 37.763 153.13 37.7607 153.049C37.6868 152.671 37.6107 152.293 37.5369 151.912C39.1126 151.162 39.6801 152.551 40.5383 153.326C40.13 153.774 39.6686 153.864 39.1495 153.522C39.0411 153.326 38.8588 153.299 38.6604 153.303C38.3651 153.299 38.0721 153.294 37.7768 153.289H37.7722Z" fill="#433325"/>
<path d="M47.63 91.9321C50.0062 91.0992 48.4836 88.8061 49.531 87.2557C49.4156 88.783 49.7963 90.1326 49.2264 91.4522C48.8781 92.2574 48.3775 92.4627 47.63 91.9298V91.9321Z" fill="#ED9C68"/>
<path d="M44.4543 155.14C44.5305 155.14 44.6066 155.14 44.6851 155.14C44.6112 155.211 44.5397 155.283 44.4659 155.354C44.4613 155.283 44.4567 155.213 44.452 155.142H44.4543V155.14Z" fill="#563B2A"/>
<path d="M37.5368 151.914C37.6106 152.293 37.6868 152.673 37.7606 153.052C37.2969 152.832 36.8355 152.611 36.3718 152.392C36.3487 151.231 37.1585 152.101 37.5345 151.914H37.5368Z" fill="#563B2A"/>
<path d="M44.4485 155.142C44.4162 155.124 44.3862 155.105 44.3539 155.085C44.3862 155.103 44.4185 155.119 44.4508 155.138L44.4485 155.14V155.142Z" fill="#563B2A"/>
<path d="M38.6564 153.306C38.8548 153.302 39.037 153.329 39.1455 153.525C38.9517 153.523 38.774 153.482 38.6564 153.306Z" fill="#563B2A"/>
<path d="M35.6824 75.3676C35.9154 76.1843 35.4978 76.4842 34.7665 76.5534C34.4251 76.5857 34.0859 76.6573 33.7468 76.7172C32.2957 76.971 32.1549 76.8349 32.178 75.4045C32.1849 74.9362 32.2841 74.7032 32.7963 74.6732C33.3684 74.6409 33.9613 74.5994 34.4989 74.4241C35.4494 74.1149 35.9062 74.2926 35.6801 75.3676H35.6824ZM33.147 76.4658C33.8668 76.0436 35.1818 76.8395 35.4448 75.4276C35.5878 74.6571 34.8934 74.5417 34.4897 74.7563C33.8229 75.1116 32.5448 74.3064 32.4733 75.7644C32.4525 76.1751 32.5679 76.5419 33.147 76.4658Z" fill="#433325"/>
<path d="M33.1477 76.4657C32.5686 76.5419 32.4556 76.175 32.474 75.7644C32.5455 74.3064 33.8259 75.1115 34.4904 74.7562C34.8918 74.5417 35.5885 74.657 35.4455 75.4276C35.1825 76.8395 33.8675 76.0435 33.1477 76.4657Z" fill="#563B2A"/>
</g>
<defs>
<clipPath id="clip0_1339_239">
<rect width="57.0522" height="165.223" fill="white" transform="scale(1.0047)"/>
</clipPath>
</defs>
</svg>
