<svg width="25" height="25" viewBox="0 0 25 25" fill="none" xmlns="http://www.w3.org/2000/svg">
<path fill-rule="evenodd" clip-rule="evenodd" d="M12.5 0.390625C5.8125 0.390625 0.390625 5.8125 0.390625 12.5C0.390625 19.1875 5.8125 24.6094 12.5 24.6094C19.1875 24.6094 24.6094 19.1875 24.6094 12.5C24.6094 5.8125 19.1875 0.390625 12.5 0.390625ZM12.5 23.0469C6.70573 23.0469 1.95312 18.3568 1.95312 12.5C1.95312 6.70573 6.64323 1.95312 12.5 1.95312C18.2943 1.95312 23.0469 6.64323 23.0469 12.5C23.0469 18.2943 18.3568 23.0469 12.5 23.0469ZM19.4156 9.62083L10.6031 18.363C10.5485 18.4172 10.4837 18.4601 10.4125 18.4892C10.3413 18.5183 10.265 18.5332 10.188 18.5328C10.1111 18.5325 10.035 18.517 9.96401 18.4872C9.89305 18.4575 9.82865 18.414 9.77448 18.3594L5.58125 14.1323C5.47194 14.022 5.41087 13.8729 5.41145 13.7176C5.41204 13.5623 5.47423 13.4136 5.58437 13.3042L6.00052 12.8911C6.1108 12.7818 6.25996 12.7208 6.41523 12.7213C6.5705 12.7219 6.7192 12.7841 6.82865 12.8943L10.1969 16.2896L18.1776 8.37292C18.288 8.26367 18.4371 8.20269 18.5924 8.20338C18.7477 8.20406 18.8963 8.26635 19.0057 8.37656L19.4187 8.79219C19.473 8.8468 19.5159 8.91156 19.5451 8.98276C19.5742 9.05396 19.5891 9.13021 19.5888 9.20716C19.5885 9.2841 19.5731 9.36024 19.5434 9.43122C19.5136 9.5022 19.4702 9.56663 19.4156 9.62083Z" fill="#6ABB6D"/>
</svg>
