<svg width="17" height="17" viewBox="0 0 17 17" fill="none" xmlns="http://www.w3.org/2000/svg">
<path fill-rule="evenodd" clip-rule="evenodd" d="M8.49995 0.26463C3.95247 0.26463 0.26561 3.95149 0.26561 8.49897C0.26561 13.0465 3.95247 16.7333 8.49995 16.7333C13.0474 16.7333 16.7343 13.0465 16.7343 8.49897C16.7343 3.95149 13.0474 0.26463 8.49995 0.26463ZM8.49995 15.6708C4.55986 15.6708 1.32811 12.4816 1.32811 8.49897C1.32811 4.55888 4.51736 1.32713 8.49995 1.32713C12.44 1.32713 15.6718 4.51638 15.6718 8.49897C15.6718 12.4391 12.4825 15.6708 8.49995 15.6708ZM13.2026 6.54115L7.21008 12.4858C7.17292 12.5226 7.12887 12.5518 7.08044 12.5716C7.03201 12.5914 6.98016 12.6015 6.92783 12.6013C6.87551 12.601 6.82374 12.5905 6.77549 12.5703C6.72724 12.55 6.68344 12.5205 6.64661 12.4833L3.79522 9.60893C3.72089 9.53394 3.67936 9.43251 3.67976 9.32693C3.68016 9.22134 3.72245 9.12023 3.79735 9.04581L4.08032 8.76495C4.15531 8.69062 4.25674 8.64909 4.36233 8.64949C4.46791 8.64989 4.56902 8.69218 4.64345 8.76708L6.93383 11.0759L12.3607 5.69257C12.4357 5.61828 12.5372 5.57682 12.6428 5.57728C12.7484 5.57775 12.8495 5.6201 12.9238 5.69505L13.2047 5.97767C13.2415 6.01481 13.2707 6.05884 13.2906 6.10726C13.3104 6.15568 13.3205 6.20753 13.3203 6.25985C13.3201 6.31217 13.3096 6.36395 13.2894 6.41221C13.2692 6.46048 13.2397 6.50429 13.2026 6.54115Z" fill="#33A474"/>
</svg>
