<svg width="25" height="13" viewBox="0 0 25 13" fill="none" xmlns="http://www.w3.org/2000/svg">
<path d="M18.5 0.709961H14.9C14.24 0.709961 13.7 1.24996 13.7 1.90996C13.7 2.56996 14.24 3.10996 14.9 3.10996H18.5C20.48 3.10996 22.1 4.72996 22.1 6.70996C22.1 8.68996 20.48 10.31 18.5 10.31H14.9C14.24 10.31 13.7 10.85 13.7 11.51C13.7 12.17 14.24 12.71 14.9 12.71H18.5C21.812 12.71 24.5 10.022 24.5 6.70996C24.5 3.39796 21.812 0.709961 18.5 0.709961ZM7.7 6.70996C7.7 7.36996 8.24 7.90996 8.9 7.90996H16.1C16.76 7.90996 17.3 7.36996 17.3 6.70996C17.3 6.04996 16.76 5.50996 16.1 5.50996H8.9C8.24 5.50996 7.7 6.04996 7.7 6.70996ZM10.1 10.31H6.5C4.52 10.31 2.9 8.68996 2.9 6.70996C2.9 4.72996 4.52 3.10996 6.5 3.10996H10.1C10.76 3.10996 11.3 2.56996 11.3 1.90996C11.3 1.24996 10.76 0.709961 10.1 0.709961H6.5C3.188 0.709961 0.5 3.39796 0.5 6.70996C0.5 10.022 3.188 12.71 6.5 12.71H10.1C10.76 12.71 11.3 12.17 11.3 11.51C11.3 10.85 10.76 10.31 10.1 10.31Z" fill="#1D3994"/>
</svg>
