<svg width="25" height="25" viewBox="0 0 25 25" fill="none" xmlns="http://www.w3.org/2000/svg">
<g clip-path="url(#clip0_1335_1667)">
<path d="M21.5669 8.04054C21.5808 8.24033 21.5808 8.44013 21.5808 8.64177C21.5808 14.7857 16.8783 21.8715 8.27984 21.8715V21.8679C5.73981 21.8715 3.25255 21.1479 1.11426 19.7833C1.4836 19.8276 1.85479 19.8497 2.22691 19.8505C4.33188 19.8524 6.37667 19.1499 8.03269 17.8563C6.03232 17.8186 4.27818 16.5213 3.6654 14.6274C4.36613 14.7618 5.08814 14.7341 5.77592 14.5473C3.59505 14.109 2.02604 12.2031 2.02604 9.98969C2.02604 9.96944 2.02604 9.9501 2.02604 9.93077C2.67586 10.2908 3.40343 10.4906 4.14766 10.5127C2.09362 9.14724 1.46046 6.42928 2.70085 4.30428C5.07426 7.20914 8.57605 8.97507 12.3352 9.16197C11.9584 7.54704 12.4731 5.85476 13.6876 4.71952C15.5704 2.95911 18.5316 3.04934 20.3015 4.92115C21.3484 4.71584 22.3518 4.33374 23.2701 3.79236C22.9211 4.86868 22.1908 5.78294 21.2151 6.36392C22.1417 6.25527 23.047 6.00852 23.8996 5.63195C23.2719 6.5674 22.4814 7.38223 21.5669 8.04054Z" fill="white"/>
</g>
<defs>
<clipPath id="clip0_1335_1667">
<rect width="24" height="24" fill="white" transform="translate(0.5 0.709961)"/>
</clipPath>
</defs>
</svg>
