<svg width="24" height="20" viewBox="0 0 24 20" fill="none" xmlns="http://www.w3.org/2000/svg">
<path d="M21.4396 0.19166L7.6329 14.5352L2.56035 9.26541C2.50185 9.20456 2.43238 9.15628 2.35591 9.12335C2.27944 9.09041 2.19747 9.07346 2.11468 9.07346C2.0319 9.07346 1.94993 9.09041 1.87346 9.12335C1.79699 9.15628 1.72751 9.20456 1.66901 9.26541L0.184762 10.8068C-0.0615873 11.0627 -0.0615873 11.4768 0.184762 11.7328L7.18779 19.0081C7.43414 19.264 7.83222 19.264 8.07801 19.0081L23.8152 2.6596C24.0616 2.40368 24.0616 1.98954 23.8152 1.7342L22.331 0.19166C22.2725 0.130896 22.2031 0.0826959 22.1266 0.0498109C22.0502 0.0169258 21.9683 0 21.8856 0C21.8029 0 21.721 0.0169258 21.6446 0.0498109C21.5681 0.0826959 21.4981 0.130896 21.4396 0.19166Z" fill="#33A474"/>
</svg>
